<?xml version="1.0" standalone="no"?>
<!DOCTYPE svg PUBLIC "-//W3C//DTD SVG 20010904//EN"
 "http://www.w3.org/TR/2001/REC-SVG-20010904/DTD/svg10.dtd">
<svg version="1.0" xmlns="http://www.w3.org/2000/svg"
 width="598.000000pt" height="694.000000pt" viewBox="0 0 598.000000 694.000000"
 preserveAspectRatio="xMidYMid meet">
<metadata>
Created by potrace 1.15, written by Peter Selinger 2001-2017
</metadata>
<g transform="translate(0.000000,694.000000) scale(0.100000,-0.100000)"
fill="#000000" stroke="none">
<path d="M2635 6930 c-523 -53 -1010 -238 -1411 -535 -64 -47 -81 -64 -60 -59
16 4 63 31 104 61 340 244 745 412 1159 482 514 87 1032 31 1519 -164 366
-147 682 -361 972 -659 74 -75 139 -135 145 -133 16 5 -142 177 -264 286 -421
377 -928 617 -1485 701 -159 24 -530 35 -679 20z"/>
<path d="M2680 6824 c-241 -22 -512 -82 -725 -160 -162 -59 -417 -187 -553
-277 -85 -57 -108 -68 -130 -62 l-27 7 26 -29 c113 -120 80 -316 -64 -388
-100 -50 -227 -28 -297 51 l-30 35 0 -30 c0 -22 -14 -46 -51 -88 -136 -156
-268 -356 -375 -569 l-81 -162 -17 29 c-9 16 -21 29 -27 29 -20 0 -6 37 62
171 113 220 241 408 406 594 96 109 119 163 28 66 -189 -201 -332 -407 -468
-675 -63 -125 -71 -147 -60 -162 23 -31 16 -99 -13 -133 -41 -49 -121 -54
-164 -11 -11 11 -20 15 -20 10 0 -21 30 -68 55 -88 l26 -20 -23 -16 c-39 -28
-127 -17 -150 18 -5 6 -8 2 -8 -10 0 -27 34 -70 70 -89 33 -17 87 -19 123 -6
29 11 77 60 77 78 0 7 9 17 20 23 11 6 19 7 18 3 -1 -4 4 -27 11 -49 28 -87
-29 -160 -117 -151 -24 3 -52 13 -64 23 -20 19 -20 19 -14 -11 4 -17 -5 -95
-19 -178 -56 -329 -56 -654 -1 -978 48 -280 120 -497 251 -764 144 -292 285
-492 510 -724 315 -323 661 -547 1070 -692 61 -22 132 -51 158 -65 33 -18 73
-28 130 -34 45 -4 134 -17 197 -28 228 -41 480 -52 715 -31 118 10 311 39 390
59 22 6 77 14 122 19 61 6 93 15 120 33 21 13 99 48 173 77 322 127 608 306
871 543 97 88 249 251 316 340 16 21 43 43 63 49 85 29 156 96 198 188 19 41
25 73 27 135 1 68 7 90 33 142 79 155 162 389 208 583 45 188 65 353 71 579
l6 212 26 7 c85 20 166 87 202 167 26 57 26 195 0 252 -27 58 -77 112 -132
140 -67 33 -73 30 -39 -18 72 -104 52 -260 -43 -333 -97 -73 -247 -61 -329 27
-28 30 -28 30 -28 7 1 -31 34 -104 67 -147 31 -41 21 -52 -47 -52 -42 0 -84
18 -102 44 -12 17 -9 -20 3 -48 24 -52 -52 -136 -123 -136 -37 0 -72 15 -98
42 l-22 23 7 -25 c30 -102 121 -153 218 -121 40 14 93 68 103 106 6 23 11 25
64 25 45 0 65 6 94 25 20 14 40 25 43 25 11 0 -6 -427 -22 -530 -34 -226 -117
-515 -199 -694 l-36 -78 -41 37 c-36 32 -115 75 -140 75 -5 0 6 -21 25 -47 43
-62 56 -103 55 -172 -1 -102 -52 -188 -137 -234 -111 -60 -239 -43 -326 44
l-48 49 6 -42 c16 -101 99 -204 199 -248 42 -19 46 -23 36 -41 -5 -11 -72 -82
-147 -158 -212 -214 -417 -367 -665 -497 l-122 -63 3 40 c5 48 -19 117 -51
147 -12 12 -40 28 -62 38 l-40 16 21 -23 c60 -67 60 -142 1 -206 -11 -13 -24
-23 -28 -23 -5 0 -17 19 -27 42 -23 52 -64 91 -115 113 l-38 16 27 -41 c64
-96 31 -225 -70 -271 -72 -33 -149 -18 -208 38 -31 30 -35 20 -13 -34 9 -20
12 -40 8 -44 -16 -16 -293 -50 -453 -56 -160 -6 -356 5 -500 28 -94 15 -91 13
-73 49 11 22 14 52 11 104 -3 61 -8 80 -32 115 -28 40 -98 91 -126 91 -10 0
-9 -4 2 -17 76 -86 58 -223 -36 -278 -78 -46 -194 -26 -243 40 -13 18 -57 42
-137 75 -274 114 -534 278 -760 482 l-93 83 51 11 c67 13 108 36 144 79 90
110 56 281 -69 345 -51 26 -54 25 -30 -9 40 -56 46 -146 12 -208 -51 -96 -224
-112 -290 -27 -205 264 -363 537 -454 784 -56 153 -57 140 6 133 122 -13 212
94 177 210 -13 44 -64 101 -98 109 -20 6 -20 5 -1 -26 26 -43 25 -115 -2 -150
-47 -60 -130 -71 -191 -26 -40 30 -33 -14 12 -65 10 -11 30 -58 45 -105 88
-268 239 -551 420 -785 34 -45 67 -96 73 -113 18 -52 50 -90 100 -119 26 -15
88 -64 137 -110 241 -221 569 -427 848 -533 73 -28 89 -38 94 -59 3 -14 12
-38 19 -53 l14 -27 -53 18 c-279 98 -596 274 -837 467 -118 95 -331 309 -430
434 -365 459 -569 988 -612 1589 -16 224 6 531 53 733 l11 47 36 -17 c21 -9
38 -17 40 -18 1 0 -7 -52 -17 -115 -54 -315 -52 -629 5 -962 11 -59 21 -94 26
-89 6 6 1 58 -11 133 -53 320 -52 625 5 941 l16 86 43 11 c104 26 137 152 63
237 l-30 34 26 44 c14 25 26 57 26 71 0 40 106 264 194 411 77 131 178 271
269 377 l50 58 13 -30 c21 -51 100 -127 156 -151 81 -35 181 -31 263 9 67 33
114 81 142 142 14 32 22 38 68 48 61 14 107 45 144 98 23 34 26 47 26 124 0
79 -2 89 -29 128 -28 40 -98 91 -126 91 -10 0 -9 -4 2 -17 72 -82 58 -220 -28
-274 l-31 -19 -6 37 c-9 56 -59 127 -118 170 l-52 37 33 27 c18 15 43 30 56
33 13 4 77 37 143 75 967 554 2159 463 3034 -232 56 -44 157 -135 225 -202 67
-67 127 -118 132 -115 13 8 -239 256 -345 340 -380 301 -818 489 -1315 565
-101 16 -498 28 -600 19z m3027 -2791 c-12 -405 -86 -729 -249 -1092 l-52
-114 -24 49 -24 50 46 106 c145 340 216 689 216 1059 l0 149 46 0 47 0 -6
-207z m-597 -1659 c0 -16 -141 -172 -261 -289 -192 -186 -399 -339 -640 -469
-87 -47 -299 -141 -343 -152 -24 -6 -25 -5 -14 24 10 24 21 33 56 42 30 7 57
25 87 56 24 24 60 51 80 60 65 27 217 114 332 190 167 110 311 233 468 397
l140 146 48 1 c26 0 47 -3 47 -6z m-1601 -968 c57 -39 60 -36 -59 -60 -193
-38 -316 -50 -545 -50 -226 -1 -320 7 -514 41 l-93 17 28 20 c16 12 36 28 45
37 14 14 24 14 91 3 193 -33 467 -43 676 -23 93 8 312 41 318 48 1 0 25 -14
53 -33z"/>
<path d="M3747 6588 c69 -71 84 -191 38 -285 -76 -153 -290 -178 -404 -47
l-32 36 7 -38 c28 -153 173 -264 330 -251 160 12 272 125 282 282 10 152 -61
264 -200 317 l-53 20 32 -34z"/>
<path d="M3135 6240 c14 -15 20 -36 20 -67 0 -38 -5 -49 -33 -74 -46 -42 -113
-37 -149 10 -10 13 -11 10 -4 -15 l9 -31 -162 -6 c-189 -6 -302 -25 -446 -73
-292 -98 -504 -281 -649 -563 -49 -96 -121 -290 -121 -327 0 -15 -4 -14 -27 8
-26 24 -65 48 -77 48 -3 0 4 -16 16 -37 15 -24 22 -52 21 -85 l-1 -48 35 0
c88 0 138 -147 84 -247 -47 -89 -197 -111 -278 -40 l-36 32 6 -35 c15 -74 86
-144 161 -159 l31 -7 5 -434 5 -435 174 -307 173 -308 43 0 c38 0 48 -5 78
-40 78 -92 76 -222 -5 -314 -92 -105 -265 -105 -357 -1 l-34 39 7 -39 c43
-227 331 -325 500 -169 44 40 38 43 88 -50 31 -56 40 -64 228 -187 l195 -129
261 0 261 0 214 138 214 137 65 1 c241 2 379 268 246 470 l-34 50 188 346 188
345 9 424 c4 233 7 470 6 525 l-2 102 46 5 c83 9 143 76 143 159 0 74 -39 133
-103 157 l-27 11 21 -29 c82 -111 -39 -255 -166 -196 -17 9 -38 27 -45 40 -20
37 3 101 50 145 l38 35 -27 95 c-15 52 -42 132 -60 178 l-34 83 41 35 c23 19
46 50 53 68 10 28 19 35 49 40 46 7 98 42 127 85 18 26 23 48 23 96 0 71 -22
114 -79 152 -44 29 -55 29 -36 -1 27 -41 36 -87 24 -130 -10 -37 -57 -96 -77
-96 -5 0 -17 19 -26 43 -19 52 -67 100 -119 122 l-38 16 27 -41 c64 -96 31
-225 -70 -271 -72 -33 -149 -18 -210 39 l-28 27 7 -32 7 -33 -695 0 -695 0 -6
24 c-8 32 -52 83 -87 101 -38 20 -42 19 -24 -9 43 -65 37 -146 -14 -197 -73
-73 -231 -31 -231 61 0 40 33 104 65 127 14 10 65 57 113 104 200 199 404 281
697 281 333 1 572 -96 783 -316 68 -71 82 -82 82 -62 0 13 13 50 30 82 34 67
35 64 -59 132 -128 94 -260 155 -419 193 -48 11 -93 23 -100 25 -10 3 -9 10 3
33 33 64 7 144 -57 177 l-33 17 20 -23z m115 -809 c14 -28 13 -84 -2 -75 -6 4
-4 -3 5 -17 27 -37 22 -86 -12 -120 -33 -33 -67 -37 -111 -14 -23 12 -30 22
-30 46 0 17 5 40 12 52 6 12 11 38 9 58 -1 30 4 41 29 63 38 31 85 35 100 7z
m-870 -108 c0 -55 -39 -101 -92 -110 -44 -7 -94 11 -109 38 -8 16 -6 19 18 19
59 1 163 72 163 113 0 7 4 6 10 -3 5 -8 10 -34 10 -57z m1659 -530 c6 -43 14
-124 17 -180 l7 -103 -724 0 -724 0 -13 28 c-7 16 -25 35 -39 41 -27 12 -27
12 -10 -6 40 -45 4 -123 -56 -123 -32 0 -67 24 -67 47 0 11 -62 13 -341 13
l-342 0 7 60 c4 33 14 79 22 103 8 23 14 62 14 87 -1 25 -1 60 -1 78 l1 32
1119 0 1119 0 11 -77z m21 -918 l0 -184 -134 -343 c-143 -364 -136 -352 -196
-334 l-25 8 27 -28 c60 -64 78 -176 43 -262 -21 -52 -90 -114 -143 -130 -88
-27 -170 -9 -239 52 l-46 40 7 -39 c15 -82 97 -179 173 -207 18 -7 32 -17 30
-22 -6 -18 -300 -84 -492 -111 -130 -19 -213 -19 -344 1 -105 15 -432 89 -461
104 -8 5 -28 43 -44 85 l-28 77 17 55 c23 72 17 181 -13 240 -29 56 -85 111
-138 134 -23 11 -44 25 -47 31 -3 7 -62 158 -131 336 l-126 323 0 180 0 179
1155 0 1155 0 0 -185z"/>
<path d="M5107 5898 c73 -80 58 -215 -30 -275 -67 -46 -168 -38 -226 16 -27
26 -31 27 -31 10 0 -29 34 -90 67 -121 65 -62 173 -76 258 -33 27 13 52 22 56
19 15 -9 116 -197 164 -304 26 -58 71 -176 100 -263 55 -166 86 -202 40 -47
-51 173 -136 372 -230 541 l-57 101 18 35 c11 19 22 37 26 39 9 6 93 -136 157
-265 60 -119 131 -296 168 -418 15 -51 33 -93 39 -93 14 0 -15 104 -73 260
-46 124 -155 351 -225 467 -44 72 -56 103 -61 147 -8 80 -45 139 -110 176 -62
36 -78 38 -50 8z"/>
<path d="M4837 5130 c18 -36 11 -75 -19 -107 -29 -31 -99 -32 -129 -2 l-21 21
7 -24 c11 -34 53 -75 85 -81 78 -16 140 37 140 118 0 38 -5 52 -29 76 -38 38
-54 37 -34 -1z"/>
<path d="M642 4285 c43 -74 -8 -165 -93 -165 -41 0 -78 14 -91 34 -5 6 -8 2
-8 -10 0 -27 34 -70 70 -89 37 -19 94 -19 133 0 95 46 102 190 12 245 -44 27
-48 25 -23 -15z"/>
<path d="M4549 3921 c40 -56 46 -146 12 -208 -47 -89 -197 -111 -278 -40 l-36
32 6 -35 c11 -52 51 -106 103 -136 63 -37 158 -39 221 -6 161 85 163 321 2
402 -51 26 -54 25 -30 -9z"/>
<path d="M1212 3584 c63 -106 -13 -231 -134 -221 -59 5 -95 29 -114 73 -10 25
-20 34 -38 34 -13 0 -36 12 -51 26 l-28 25 7 -27 c11 -42 42 -80 80 -98 19 -9
43 -32 55 -51 54 -91 186 -110 272 -38 43 37 59 74 59 141 0 68 -23 112 -79
149 -47 32 -54 29 -29 -13z"/>
<path d="M4330 2845 c7 -8 10 -30 8 -49 -4 -33 -2 -35 26 -38 25 -2 33 -10 44
-40 17 -45 10 -81 -23 -114 -32 -31 -100 -33 -138 -4 l-26 21 10 -30 c17 -49
63 -81 116 -81 79 0 133 51 133 125 0 44 -30 97 -63 112 -14 7 -28 24 -31 40
-8 29 -43 73 -59 73 -5 0 -4 -7 3 -15z"/>
<path d="M1902 2245 c43 -74 -8 -165 -93 -165 -41 0 -78 14 -91 34 -5 6 -8 2
-8 -10 0 -27 34 -70 70 -89 37 -19 94 -19 133 0 95 46 102 190 12 245 -44 27
-48 25 -23 -15z"/>
<path d="M1338 858 c-145 -156 -281 -302 -302 -325 l-38 -43 79 0 c77 0 79 1
97 31 10 17 52 73 93 125 l76 94 242 0 242 0 79 -96 c43 -53 88 -109 99 -125
20 -29 21 -29 129 -29 105 0 108 1 95 19 -8 11 -138 157 -289 325 -249 277
-278 306 -306 306 -29 0 -58 -29 -296 -282z m393 -10 l51 -58 -192 0 c-105 0
-190 4 -188 8 2 5 44 54 93 110 l90 101 48 -52 c26 -29 70 -78 98 -109z"/>
<path d="M3080 823 c-162 -174 -296 -320 -298 -325 -2 -4 30 -8 71 -8 l75 0
45 63 c25 35 69 91 97 125 l52 62 238 0 238 0 48 -52 c26 -29 72 -86 102 -125
l54 -73 104 0 c57 0 104 4 104 8 0 5 -128 151 -285 325 -265 294 -288 317
-318 316 -29 0 -60 -31 -327 -316z m384 -31 c-51 -1 -138 -1 -192 0 l-100 3
95 107 94 106 98 -106 98 -107 -93 -3z"/>
<path d="M1990 1098 l0 -31 210 6 210 7 0 -295 0 -295 90 0 90 0 0 295 0 295
200 -7 200 -6 0 31 0 32 -500 0 -500 0 0 -32z"/>
<path d="M4080 811 l0 -321 90 0 90 0 0 145 0 145 133 0 c186 0 370 30 455 74
50 26 82 72 82 120 0 49 -19 80 -63 103 -74 39 -134 45 -464 50 l-323 5 0
-321z m461 270 c101 -9 170 -35 189 -70 31 -59 -17 -127 -111 -156 -64 -19
-293 -41 -332 -31 l-27 6 0 124 c0 90 3 126 13 129 20 8 164 7 268 -2z"/>
<path d="M1000 395 l0 -25 1955 0 1955 0 0 25 0 25 -1955 0 -1955 0 0 -25z"/>
<path d="M1783 260 c-95 -20 -133 -58 -133 -133 0 -41 5 -53 29 -76 16 -15 47
-33 69 -39 78 -24 222 -8 222 23 0 18 3 18 -66 0 -45 -11 -66 -12 -100 -4
-109 28 -127 154 -27 195 43 18 111 18 147 -1 15 -8 32 -15 37 -15 17 0 9 39
-8 44 -39 11 -130 14 -170 6z"/>
<path d="M3062 260 c-118 -24 -170 -123 -106 -199 71 -84 307 -77 368 11 23
32 20 100 -4 130 -38 48 -165 77 -258 58z m158 -35 c125 -65 34 -223 -115
-200 -67 9 -110 50 -110 103 0 43 30 86 70 102 33 14 124 11 155 -5z"/>
<path d="M3843 260 c-86 -18 -132 -56 -139 -117 -10 -79 56 -132 176 -141 86
-6 165 16 205 58 61 64 28 161 -63 188 -56 17 -132 22 -179 12z m177 -55 c23
-22 30 -37 30 -68 0 -86 -108 -140 -205 -102 -53 20 -75 47 -75 93 0 77 53
115 152 110 58 -3 71 -8 98 -33z"/>
<path d="M4355 264 c-87 -20 -108 -29 -136 -62 -28 -31 -31 -40 -26 -81 6 -55
44 -94 109 -112 43 -11 216 -7 238 6 5 3 10 31 10 61 0 53 0 54 -30 54 -29 0
-30 -1 -30 -49 l0 -49 -43 -6 c-50 -8 -116 5 -151 28 -34 22 -51 78 -34 112
32 67 135 93 224 59 39 -15 48 -15 55 -4 13 21 11 26 -13 32 -37 9 -151 16
-173 11z"/>
<path d="M1010 245 c0 -12 13 -15 60 -15 l60 0 0 -115 0 -115 30 0 30 0 0 115
0 115 55 0 c42 0 55 3 55 15 0 13 -23 15 -145 15 -122 0 -145 -2 -145 -15z"/>
<path d="M1380 135 l0 -125 100 0 c77 0 100 3 100 13 0 11 -16 13 -75 9 l-75
-5 0 52 0 51 70 0 c40 0 70 4 70 10 0 6 -30 10 -70 10 l-70 0 0 40 0 40 75 0
c60 0 75 3 75 15 0 12 -18 15 -100 15 l-100 0 0 -125z"/>
<path d="M2060 130 l0 -130 30 0 30 0 0 65 0 65 110 0 110 0 0 -64 c0 -61 1
-63 25 -63 l25 0 0 128 0 129 -25 0 c-23 0 -25 -3 -25 -50 l0 -50 -110 0 -110
0 0 50 c0 49 -1 50 -30 50 l-30 0 0 -130z"/>
<path d="M2510 130 c0 -123 1 -130 20 -130 19 0 20 7 20 95 0 52 2 95 5 95 2
0 63 -43 133 -95 71 -52 135 -95 141 -95 8 0 11 40 11 130 0 123 -1 130 -20
130 -17 0 -20 -8 -22 -90 l-3 -91 -125 91 c-69 49 -133 90 -142 90 -16 0 -18
-13 -18 -130z"/>
<path d="M3430 135 l0 -125 105 0 c84 0 105 3 105 14 0 12 -14 13 -75 9 l-75
-6 0 117 0 116 -30 0 -30 0 0 -125z"/>
<path d="M4670 190 c34 -39 66 -73 71 -76 5 -3 9 -29 9 -58 0 -50 1 -53 25
-53 24 0 25 2 25 56 0 55 2 57 65 125 36 38 65 70 65 72 0 2 -11 4 -24 4 -17
0 -38 -16 -71 -55 -26 -30 -50 -55 -54 -55 -3 0 -26 25 -51 55 -40 49 -49 55
-84 55 l-38 0 62 -70z"/>
</g>
</svg>
